HIERARCHY
ROOT Hips
{
 OFFSET 0.000000 0.000000 0.000000
 CHANNELS 6 Xposition Yposition Zposition Yrotation Xrotation Zrotation
 JOINT Chest
 {
  OFFSET 0.000000 10.383400 0.001500
  CHANNELS 3 Yrotation Xrotation Zrotation
  JOINT Chest2
  {
   OFFSET 0.000000 10.418200 -0.003100
   CHANNELS 3 Yrotation Xrotation Zrotation
   JOINT Chest3
   {
    OFFSET 0.000000 10.375100 0.000000
    CHANNELS 3 Yrotation Xrotation Zrotation
    JOINT Chest4
    {
     OFFSET 0.000000 10.364600 0.000000
     CHANNELS 3 Yrotation Xrotation Zrotation
     JOINT Neck
     {
      OFFSET 0.000000 15.642200 0.000000
      CHANNELS 3 Yrotation Xrotation Zrotation
      JOINT Head
      {
       OFFSET 0.000000 9.697300 -0.006500
       CHANNELS 3 Yrotation Xrotation Zrotation
       End Site
       {
        OFFSET 0.000000 18.492200 -0.003400
       }
      }
     }
     JOINT RightCollar
     {
      OFFSET -3.166800 10.349300 0.000000
      CHANNELS 3 Yrotation Xrotation Zrotation
      JOINT RightShoulder
      {
       OFFSET -14.729700 0.000000 0.000000
       CHANNELS 3 Yrotation Xrotation Zrotation
       JOINT RightElbow
       {
        OFFSET 0.000000 -32.224300 0.000000
        CHANNELS 3 Yrotation Xrotation Zrotation
        JOINT RightWrist
        {
         OFFSET 0.000000 -26.084100 0.000000
         CHANNELS 3 Yrotation Xrotation Zrotation
         End Site
         {
          OFFSET 0.000000 -19.319400 0.000000
         }
        }
       }
      }
     }
     JOINT LeftCollar
     {
      OFFSET 3.166800 10.349300 0.000000
      CHANNELS 3 Yrotation Xrotation Zrotation
      JOINT LeftShoulder
      {
       OFFSET 14.729700 0.000000 0.000000
       CHANNELS 3 Yrotation Xrotation Zrotation
       JOINT LeftElbow
       {
        OFFSET 0.000000 -32.224300 0.000000
        CHANNELS 3 Yrotation Xrotation Zrotation
        JOINT LeftWrist
        {
         OFFSET 0.000000 -26.084100 0.000000
         CHANNELS 3 Yrotation Xrotation Zrotation
         End Site
         {
          OFFSET 0.000000 -19.319400 0.000000
         }
        }
       }
      }
     }
    }
   }
  }
 }
 JOINT RightHip
 {
  OFFSET -8.428900 -0.007500 -0.000800
  CHANNELS 3 Yrotation Xrotation Zrotation
  JOINT RightKnee
  {
   OFFSET 0.000000 -43.834600 0.000700
   CHANNELS 3 Yrotation Xrotation Zrotation
   JOINT RightAnkle
   {
    OFFSET 0.000000 -42.757000 0.001200
    CHANNELS 3 Yrotation Xrotation Zrotation
    JOINT RightToe
    {
     OFFSET 0.000000 -6.946900 15.649300
     CHANNELS 3 Yrotation Xrotation Zrotation
     End Site
     {
      OFFSET 0.000000 -1.580800 6.825800
     }
    }
   }
  }
 }
 JOINT LeftHip
 {
  OFFSET 8.428900 -0.007500 -0.000800
  CHANNELS 3 Yrotation Xrotation Zrotation
  JOINT LeftKnee
  {
   OFFSET 0.000000 -43.834600 0.000700
   CHANNELS 3 Yrotation Xrotation Zrotation
   JOINT LeftAnkle
   {
    OFFSET 0.000000 -42.757000 0.001200
    CHANNELS 3 Yrotation Xrotation Zrotation
    JOINT LeftToe
    {
     OFFSET 0.000000 -6.946900 15.649300
     CHANNELS 3 Yrotation Xrotation Zrotation
     End Site
     {
      OFFSET 0.000000 -1.580800 6.825800
     }
    }
   }
  }
 }
}
MOTION
Frames: 8
Frame Time: 0.008333
129.324713 126.873073 7.978620 -11.224660 -27.247837 -3.038037 -2.640097 21.746320 3.443592 -0.410927 3.042813 0.534491 -0.695286 4.903248 0.854565 -2.284610 18.430002 2.972429 4.654722 12.501732 -3.889549 10.433497 -12.036647 -9.290912 -0.592530 -5.147611 -4.453046 6.533279 -16.999469 -1.883695 27.125896 -51.323126 -12.677893 10.901870 9.015877 -23.608336 -3.469187 -6.558319 -3.305999 -5.725268 -10.261234 4.708030 -40.644256 -59.208983 27.329014 -20.542609 2.549682 29.249353 -3.030785 -42.131369 -1.841474 -16.923824 75.187503 -18.873842 2.825684 -1.598998 8.319871 0.000196 -0.041739 0.000087 -8.044638 -36.915233 -6.161263 3.253483 68.365512 6.799843 -12.921465 -4.889716 -9.692530 -0.016199 -0.037982 -0.007186
129.328594 126.874776 7.975337 -11.209794 -27.291992 -3.029422 -2.627973 21.812570 3.436716 -0.384131 3.088444 0.540815 -0.689698 4.941533 0.859418 -2.250869 18.493808 2.980682 4.774361 12.725275 -3.901803 10.636165 -11.607014 -9.332523 -0.592269 -5.209282 -4.408178 6.527902 -17.053606 -1.937751 27.421105 -51.461704 -12.936051 10.946714 9.159828 -23.666966 -3.454724 -6.640453 -3.315947 -5.681376 -10.293414 4.701296 -40.455702 -59.375053 27.161005 -20.538681 2.521622 29.176807 -2.942981 -42.098688 -1.907092 -16.757656 75.202326 -18.705702 2.815835 -1.542659 8.374737 -0.001773 -0.046209 -0.000786 -7.995946 -36.865662 -6.290562 2.904013 68.459983 6.267556 -12.915828 -5.047113 -9.677327 -0.012966 -0.032712 -0.005753
129.331457 126.876210 7.969701 -11.198883 -27.322238 -3.023363 -2.534325 21.920849 3.471547 -0.431135 3.068534 0.538657 -0.685314 4.978339 0.862848 -2.223042 18.554887 2.983493 4.883433 12.950724 -3.905604 10.814929 -11.176359 -9.353124 -0.597864 -5.248604 -4.366888 6.578103 -17.044654 -1.998406 27.679702 -51.660016 -13.229155 10.996017 9.284501 -23.716385 -3.415297 -6.703235 -3.328771 -5.600333 -10.335329 4.676210 -40.273291 -59.532576 26.935141 -20.509743 2.493145 29.117581 -2.827402 -42.085079 -1.972270 -16.679059 75.216997 -18.598360 2.787662 -1.497842 8.417056 0.010884 -0.059250 0.004827 -7.979035 -36.829147 -6.398019 2.537777 68.548633 5.713568 -12.904216 -5.194586 -9.651959 -0.013830 -0.036021 -0.006136
129.333934 126.879853 7.967382 -11.182878 -27.370559 -3.016566 -2.529071 21.986600 3.463910 -0.430097 3.080084 0.539625 -0.665147 5.037895 0.863546 -2.199719 18.609539 2.983279 4.984046 13.174698 -3.902730 10.974961 -10.750298 -9.357546 -0.612276 -5.253725 -4.334181 6.585345 -17.046763 -2.039243 27.937240 -51.859632 -13.486953 11.040293 9.385582 -23.747533 -3.346421 -6.734142 -3.342070 -5.492949 -10.390108 4.631902 -40.082516 -59.695301 26.666126 -20.493710 2.459595 29.050652 -2.785979 -42.043542 -2.010097 -16.600944 75.219751 -18.517939 2.783986 -1.481548 8.439118 0.016652 -0.057328 0.007386 -7.981945 -36.754826 -6.497453 2.176517 68.604675 5.166342 -12.906456 -5.338422 -9.629918 -0.009603 -0.027184 -0.004261
129.335750 126.884398 7.966031 -11.161548 -27.421917 -3.015189 -2.530684 22.054158 3.456407 -0.428986 3.090912 0.540550 -0.649828 5.091301 0.861801 -2.180314 18.657708 2.981722 5.075473 13.386894 -3.895651 11.117347 -10.347590 -9.351618 -0.638567 -5.223417 -4.314234 6.535101 -17.082018 -2.048082 28.191219 -52.044378 -13.698452 11.061965 9.467307 -23.753436 -3.252389 -6.734324 -3.355571 -5.369763 -10.455198 4.568112 -39.929175 -59.858026 26.408586 -20.490735 2.423317 28.974788 -2.777331 -41.995415 -2.029884 -16.483685 75.219504 -18.410689 2.765642 -1.472916 8.457453 0.009244 -0.052379 0.004101 -7.994477 -36.692207 -6.588323 1.862916 68.676307 4.673975 -12.927470 -5.445181 -9.614693 -0.011756 -0.033976 -0.005216
129.337058 126.887517 7.961307 -11.148331 -27.449567 -3.018434 -2.475095 22.147084 3.467361 -0.456183 3.072533 0.548764 -0.648691 5.125013 0.860608 -2.165325 18.705015 2.979827 5.154286 13.571197 -3.887242 11.238933 -9.998151 -9.341698 -0.676595 -5.173461 -4.308704 6.450427 -17.119636 -2.028628 28.404443 -52.212103 -13.857273 11.063706 9.504691 -23.748882 -3.142854 -6.720347 -3.367440 -5.234813 -10.525334 4.485690 -39.859651 -60.017535 26.212324 -20.506078 2.383268 28.891211 -2.741964 -41.970779 -2.049973 -16.304422 75.217899 -18.236376 2.748589 -1.464531 8.495775 0.006524 -0.049356 0.002894 -8.009696 -36.655781 -6.654916 1.600391 68.743495 4.244343 -12.978141 -5.519044 -9.621477 -0.013897 -0.037593 -0.006165
129.337874 126.889060 7.953146 -11.151188 -27.453082 -3.023484 -2.430760 22.193651 3.478592 -0.461375 3.079409 0.554684 -0.643050 5.171724 0.857452 -2.153433 18.757549 2.976743 5.216565 13.714323 -3.879136 11.334683 -9.726863 -9.331256 -0.723180 -5.123409 -4.314889 6.337633 -17.152776 -1.982055 28.621715 -52.448590 -14.036030 11.136151 9.567880 -23.707724 -3.028538 -6.710354 -3.373598 -5.092900 -10.596364 4.387865 -39.903177 -60.172712 26.113449 -20.544938 2.341414 28.802760 -2.709157 -41.965950 -2.055417 -16.041133 75.202560 -17.983361 2.731611 -1.457263 8.552903 0.005749 -0.050994 0.002550 -8.022114 -36.642777 -6.695745 1.390600 68.804513 3.879275 -13.052187 -5.563504 -9.650625 -0.015451 -0.038584 -0.006855
129.339529 126.893961 7.952150 -11.110730 -27.492152 -3.039431 -2.445472 22.258655 3.475546 -0.417790 3.183520 0.539912 -0.667607 5.159458 0.868345 -2.141742 18.817565 2.971274 5.258838 13.812460 -3.872439 11.399074 -9.541066 -9.321707 -0.774566 -5.084545 -4.329572 6.204621 -17.174523 -1.910505 28.767894 -52.706152 -14.172686 11.137091 9.590595 -23.660511 -2.915854 -6.711810 -3.373110 -4.958799 -10.664910 4.280284 -40.074271 -60.325233 26.139659 -20.600395 2.309667 28.713480 -2.707832 -41.922566 -2.075033 -16.044758 75.189804 -17.968547 2.729554 -1.459591 8.560373 0.006008 -0.041622 0.002666 -8.063603 -36.587115 -6.748979 1.233048 68.852875 3.579403 -13.140329 -5.578112 -9.691548 -0.015425 -0.039501 -0.006843
